<svg width="8" height="8" viewBox="0 0 8 8" fill="none" xmlns="http://www.w3.org/2000/svg">
<path d="M6.33113 3.53783L2.9834 0.1951C2.86012 0.0650152 2.70617 0 2.52125 0C2.33633 0 2.18238 0.0650871 2.05909 0.1951L1.66885 0.580263C1.54217 0.70693 1.47882 0.860898 1.47882 1.04233C1.47882 1.22033 1.54215 1.37613 1.66885 1.50959L4.16431 4.00001L1.66874 6.49555C1.54209 6.62222 1.47875 6.77619 1.47875 6.95763C1.47875 7.13561 1.54208 7.29147 1.66874 7.42488L2.05902 7.80999C2.18568 7.93666 2.3398 7.99998 2.52117 7.99998C2.70262 7.99998 2.8567 7.93666 2.98333 7.80999L6.33113 4.46726C6.45785 4.33375 6.52125 4.17799 6.52125 3.99999C6.52127 3.81856 6.45785 3.6645 6.33113 3.53783Z" fill="black"/>
</svg>
