<svg width="6" height="8" viewBox="0 0 6 8" fill="none" xmlns="http://www.w3.org/2000/svg">
<path d="M5.33113 3.53783L1.9834 0.1951C1.86012 0.0650152 1.70616 0 1.52124 0C1.33632 0 1.18237 0.0650871 1.05909 0.1951L0.66885 0.580263C0.542164 0.70693 0.478822 0.860898 0.478822 1.04233C0.478822 1.22033 0.542147 1.37613 0.66885 1.50959L3.16431 4.00001L0.668742 6.49555C0.542093 6.62222 0.47875 6.77619 0.47875 6.95763C0.47875 7.13561 0.542075 7.29147 0.668742 7.42488L1.05901 7.80999C1.18568 7.93666 1.33979 7.99998 1.52117 7.99998C1.70262 7.99998 1.8567 7.93666 1.98333 7.80999L5.33113 4.46726C5.45785 4.33375 5.52125 4.17799 5.52125 3.99999C5.52127 3.81856 5.45785 3.6645 5.33113 3.53783Z" fill="white"/>
</svg>
