<svg width="8" height="8" viewBox="0 0 8 8" fill="none" xmlns="http://www.w3.org/2000/svg">
<path d="M1.66886 4.46217L5.01659 7.8049C5.13987 7.93498 5.29383 8 5.47875 8C5.66367 8 5.81762 7.93491 5.9409 7.8049L6.33114 7.41974C6.45783 7.29307 6.52117 7.1391 6.52117 6.95767C6.52117 6.77967 6.45784 6.62387 6.33114 6.49041L3.83568 3.99999L6.33125 1.50445C6.4579 1.37778 6.52124 1.22381 6.52124 1.04237C6.52124 0.864387 6.45792 0.70853 6.33125 0.575119L5.94098 0.190009C5.81431 0.0633421 5.6602 1.7643e-05 5.47882 1.7643e-05C5.29737 1.7643e-05 5.14329 0.0633421 5.01666 0.190009L1.66886 3.53274C1.54214 3.66625 1.47874 3.82201 1.47874 4.00001C1.47872 4.18144 1.54214 4.3355 1.66886 4.46217Z" fill="black"/>
</svg>
