<svg width="24" height="24" viewBox="0 0 24 24" fill="none" xmlns="http://www.w3.org/2000/svg">
<path d="M0.749981 7.49999H23.25C23.664 7.49999 23.9999 7.16397 23.9999 6.75001C23.9999 6.33599 23.6639 6.00003 23.25 6.00003H0.749981C0.335964 6.00003 0 6.33606 0 6.75001C0 7.16397 0.336026 7.49999 0.749981 7.49999Z" fill="#313234"/>
<path d="M23.25 11.25H0.749981C0.335964 11.25 0 11.5861 0 12C0 12.414 0.336026 12.75 0.749981 12.75H23.25C23.664 12.75 23.9999 12.414 23.9999 12C23.9999 11.5861 23.664 11.25 23.25 11.25Z" fill="#313234"/>
<path d="M23.25 16.5H8.24998C7.83596 16.5 7.5 16.8361 7.5 17.25C7.5 17.664 7.83603 18 8.24998 18H23.25C23.664 18 23.9999 17.664 23.9999 17.25C24 16.836 23.664 16.5 23.25 16.5Z" fill="#313234"/>
</svg>
