<svg width="10" height="10" viewBox="0 0 10 10" fill="none" xmlns="http://www.w3.org/2000/svg">
<g clip-path="url(#clip0_4_102)">
<path d="M9.31815 4.09091H5.90906V0.681818C5.90906 0.305453 5.60361 0 5.22724 0H4.77273C4.39636 0 4.09091 0.305453 4.09091 0.681818V4.09091H0.681818C0.305453 4.09091 0 4.39636 0 4.77273V5.22724C0 5.60361 0.305453 5.90906 0.681818 5.90906H4.09091V9.31815C4.09091 9.69452 4.39636 9.99997 4.77273 9.99997H5.22724C5.60361 9.99997 5.90906 9.69452 5.90906 9.31815V5.90906H9.31815C9.69452 5.90906 9.99997 5.60361 9.99997 5.22724V4.77273C9.99997 4.39636 9.69452 4.09091 9.31815 4.09091Z" fill="#313234"/>
</g>
<defs>
<clipPath id="clip0_4_102">
<rect width="10" height="10" fill="white"/>
</clipPath>
</defs>
</svg>
